<svg xmlns="http://www.w3.org/2000/svg" viewBox="0 0 550 400" width="100%" height="100%">
  <defs>
    <style>
      .win-text { font-family: 'Segoe UI', -apple-system, BlinkMacSystemFont, Roboto, sans-serif; font-size: 12px; fill: #1a1a1a; }
      .win-title { font-family: 'Segoe UI', Tahoma, Geneva, Verdana, sans-serif; font-size: 12px; fill: #1a1a1a; }
      .terminal-text { font-family: 'Consolas', 'Courier New', monospace; font-size: 12px; fill: #111111; }
      .btn-txt { font-family: 'Segoe UI', Tahoma, Geneva, Verdana, sans-serif; font-size: 13px; fill: #000000; text-anchor: middle; }
      .btn-txt-disabled { font-family: 'Segoe UI', Tahoma, Geneva, Verdana, sans-serif; font-size: 13px; fill: #a0a0a0; text-anchor: middle; }
    </style>
  </defs>

  <rect x="0" y="0" width="550" height="400" rx="7" ry="7" fill="#f3f3f3" stroke="#cccccc" stroke-width="1" />
  
  <path d="M 7,0 L 543,0 A 7,7 0 0 1 550,7 L 550,32 L 0,32 L 0,7 A 7,7 0 0 1 7,0 Z" fill="#fbf5f0" />
  
  <circle cx="18" cy="16" r="6" fill="#cca662" />
  <circle cx="20" cy="14" r="1.2" fill="#000" />
  <polygon points="10,15 13,13 13,17" fill="#ff9900" />
  
  <text x="32" y="20" class="win-title">Installazione di TeX Live</text>
  
  <g stroke="#000000" stroke-width="1" opacity="0.7">
    <line x1="470" y1="20" x2="480" y2="20" />
    <rect x="502" y="12" width="10" height="10" fill="none" />
    <line x1="532" y1="12" x2="542" y2="22" />
    <line x1="542" y1="12" x2="532" y2="22" />
  </g>

  <rect x="12" y="44" width="526" height="312" fill="#ffffff" stroke="#b5b5b5" stroke-width="1" />
  
  <rect x="527" y="45" width="10" height="310" fill="#f0f0f0" />
  <rect x="529" y="258" width="6" height="78" rx="3" fill="#cdcdcd" />

  <g class="win-text" xml:space="preserve">
    <text x="18" y="60">Installing [0063/5083, time/total: 02:03/02:46:35]: aguplus [351k]</text>
    <text x="18" y="76">Installing [0064/5083, time/total: 02:05/02:48:24]: aiaa [932k]</text>
    <text x="18" y="92">Installing [0065/5083, time/total: 02:07/02:48:45]: aichej [7k]</text>
    <text x="18" y="108">Installing [0066/5083, time/total: 02:08/02:50:04]: aiplans [653k]</text>
    <text x="18" y="124">Installing [0067/5083, time/total: 02:10/02:51:05]: ajl [7k]</text>
    <text x="18" y="140">Installing [0068/5083, time/total: 02:10/02:51:04]: akktex [16k]</text>
    <text x="18" y="156">Installing [0069/5083, time/total: 02:12/02:53:40]: akletter [208k]</text>
    <text x="18" y="172">Installing [0070/5083, time/total: 02:13/02:54:27]: akshar [1637k]</text>
    <text x="18" y="188">Installing [0071/5083, time/total: 02:16/02:54:15]: albatross [5011k]</text>
    <text x="18" y="204">Installing [0072/5083, time/total: 02:19/02:46:17]: albatross.windows [3k]</text>
    <text x="18" y="220">Installing [0073/5083, time/total: 02:20/02:47:28]: alchemist [145k]</text>
    <text x="18" y="236">Installing [0074/5083, time/total: 02:21/02:48:21]: alegreya [24150k]</text>
    <text x="18" y="252">Installing [0075/5083, time/total: 02:36/02:21:12]: aleph [28k]</text>
    <text x="18" y="268">Installing [0076/5083, time/total: 02:37/02:22:04]: aleph.windows [217k]</text>
    <text x="18" y="284">Installing [0077/5083, time/total: 02:38/02:22:40]: alertmessage [114k]</text>
    <text x="18" y="300">Installing [0078/5083, time/total: 02:40/02:24:18]: alfaslabone [202k]</text>
    <text x="18" y="316">Installing [0079/5083, time/total: 02:42/02:25:49]: alg [10k]</text>
    <text x="18" y="332">Installing [0080/5083, time/total: 02:44/02:27:36]: algobox [130k]</text>
    <text x="18" y="348">Installing [0081/5083, time/total: 02:46/02:29:13]: algolrevived [526k]</text>
  </g>

  <rect x="354" y="364" width="86" height="26" rx="4" fill="#ffffff" stroke="#cccccc" stroke-width="1" />
  <text x="397" y="381" class="btn-txt">Interrompi</text>

  <rect x="452" y="364" width="86" height="26" rx="4" fill="#fbfbfb" stroke="#e0e0e0" stroke-width="1" />
  <text x="495" y="381" class="btn-txt-disabled">Chiudi</text>
</svg>
